<?xml version="1.0" encoding="utf-8"?>
<svg version="1.1" id="Calque_1" xmlns="http://www.w3.org/2000/svg" xmlns:xlink="http://www.w3.org/1999/xlink" x="0px" y="0px"
	 viewBox="0 0 558 558" style="enable-background:new 0 0 558 558;" xml:space="preserve">
<style type="text/css">
	.st0{fill:#FFFFFF;}
</style>
<ellipse cx="279" cy="278.8" rx="279" ry="278.8"/>
<ellipse cx="279" cy="279" rx="224.4" ry="224.4"/>
<g>
	<polygon class="st0" points="412.4,202.1 412.4,255.4 376.9,202.1 361.3,202.1 361.3,286 379.3,286 379.3,232.9 414.7,286
		430.7,286 430.7,202.1 	"/>
	<polygon class="st0" points="200.6,347.6 258.3,347.6 258.3,331.7 218.1,331.7 218.1,312.5 250.6,312.5 250.6,297 218.1,297
		218.1,279.9 258.3,279.9 258.3,263.8 200.6,263.8 	"/>
	<path class="st0" d="M349.8,287.6c-18.6-8.7-33.4,1.8-40.3,10.4c-2.9-0.4-5.9-0.7-9-0.7c-19,0-29.6,11.5-29.6,25.6
		c0,11.3,5.7,18.5,16.6,22.2l11.8,3.9c6.3,2.1,9,4.3,9,8.8c0,6.5-5.3,9.3-11.8,9.3c-7.6,0-14.9-3.1-20.3-6.8l-4.2,16.6
		c4.9,2.8,15.2,6.5,25.6,6.5c18.3,0,29.3-11.6,29.3-26.8c0-11.1-5.9-18.1-19-22.6l-12.1-4.2c-4.5-1.5-7-3.7-7-8.1
		c0-5.1,4-8.1,12.4-8.1c6.4,0,14.2,2.1,19.6,5.6l3-9.5c2.2-2.9,8.7-9.5,18.2-5.1c9.8,4.5,8.4,15.3,6.3,22.2h-2.5v18.3h21.6v65.6
		h18.3v-65.6h20.9v-18.3h-39.4C370.7,309.3,364.3,294.3,349.8,287.6z"/>
	<path class="st0" d="M279.4,135.5c12.7,5.9,6.7,22.3,4.5,27.2h0.1h-4.6v83.8h18.3v-30.1h2.5c9.3,6.4,20.6,31.5,37.6,31.5
		c4.8,0,10.4-1.5,13.3-3.2l-1.9-14.4c-2.1,1.1-5.1,1.9-7,1.9c-7,0-13.6-8.8-20.1-16.4c11-2.6,19-12.2,19-25.3
		c0-16.4-9.9-27.6-25.6-27.6h-11.8c5.7-19.5-0.3-36.6-16.4-44c-18-8.4-32.4,1.1-39.6,9.5h-42.9v83.8h57.7v-15.9h-40.2v-19.4h32.5
		v-15.5h-32.5v-17.2h40.2v-4.9C265.3,136.2,271.2,131.7,279.4,135.5z M322.5,190.6c0,7.3-4.7,11.8-11.8,11.8h-13.2v-23.8h13.2
		C317.9,178.6,322.5,182.8,322.5,190.6z"/>
</g>
<path class="st0" d="M243.9,423.7l-1.2-0.1c-17.2-1.6-69.7-6.4-99.4-56.2c-29.9-50.1-12.7-93.7-6.2-110l0.7-1.6l19.6,7.6l-0.7,1.7
	c-6,15.1-19.9,50.3,4.7,91.5c24.3,40.6,67.2,44.5,83.4,46.1l1.2,0.1L243.9,423.7z"/>
<path class="st0" d="M279,518.3C147.1,518.3,39.7,410.9,39.7,279S147.1,39.7,279,39.7S518.3,147.1,518.3,279S410.9,518.3,279,518.3z
	 M279,60.2C158.3,60.2,60.2,158.3,60.2,279S158.3,497.8,279,497.8S497.8,399.7,497.8,279S399.7,60.2,279,60.2z"/>
</svg>
